<?xml version="1.0" encoding="UTF-8" standalone="no"?>
<!-- Created with Inkscape (http://www.inkscape.org/) -->

<svg
   xmlns:dc="http://purl.org/dc/elements/1.1/"
   xmlns:cc="http://creativecommons.org/ns#"
   xmlns:rdf="http://www.w3.org/1999/02/22-rdf-syntax-ns#"
   xmlns:svg="http://www.w3.org/2000/svg"
   xmlns="http://www.w3.org/2000/svg"
   xmlns:sodipodi="http://sodipodi.sourceforge.net/DTD/sodipodi-0.dtd"
   xmlns:inkscape="http://www.inkscape.org/namespaces/inkscape"
   width="908.87927"
   height="245.11096"
   id="svg3303"
   version="1.1"
   inkscape:version="0.48.4 r9939"
   inkscape:export-filename="/home/sschaet/aura/doc/logo.png"
   inkscape:export-xdpi="39.610001"
   inkscape:export-ydpi="39.610001"
   sodipodi:docname="New document 3">
  <defs
     id="defs3305" />
  <sodipodi:namedview
     id="base"
     pagecolor="#ffffff"
     bordercolor="#666666"
     borderopacity="1.0"
     inkscape:pageopacity="0.0"
     inkscape:pageshadow="2"
     inkscape:zoom="0.49497475"
     inkscape:cx="320.27807"
     inkscape:cy="34.224304"
     inkscape:document-units="px"
     inkscape:current-layer="layer1"
     showgrid="false"
     inkscape:window-width="1278"
     inkscape:window-height="779"
     inkscape:window-x="0"
     inkscape:window-y="19"
     inkscape:window-maximized="0"
     fit-margin-top="0"
     fit-margin-left="0"
     fit-margin-right="0"
     fit-margin-bottom="0" />
  <metadata
     id="metadata3308">
    <rdf:RDF>
      <cc:Work
         rdf:about="">
        <dc:format>image/svg+xml</dc:format>
        <dc:type
           rdf:resource="http://purl.org/dc/dcmitype/StillImage" />
        <dc:title></dc:title>
      </cc:Work>
    </rdf:RDF>
  </metadata>
  <g
     inkscape:label="Layer 1"
     inkscape:groupmode="layer"
     id="layer1"
     transform="translate(-85.560357,-61.235278)">
    <rect
       style="fill:#ffffff;fill-opacity:1;fill-rule:nonzero;stroke:none"
       id="rect3408"
       width="1072.782"
       height="460.62955"
       x="-76.771591"
       y="-100.36121"
       transform="translate(85.560357,61.235278)" />
    <path
       style="fill:#6699cc;fill-opacity:1;stroke:none"
       d="m 588.57344,250.01392 c -8.421,17.7753 0.3812,18.277 -8.0398,36.0523 -32.1505,5.8125 -84.0602,19.4268 -110.4924,0.7714 -62.8127,-31.2684 -137.3044,4.3046 -202.3322,-19.6011 -19.885,-6.4511 -79.5348,-29.5751 -72.9809,-29.5732 54.8497,10.2997 110.7184,28.9441 167.2376,16.9888 44.9339,-8.8094 94.6439,-23.6724 139.4151,-13 30.0016,5.2883 58.8142,8.0923 88.1926,1.3684 z"
       id="path3836-8-2-3-1-2-96-1-5-0-5"
       inkscape:connector-curvature="0"
       sodipodi:nodetypes="ccccccccc" />
    <path
       style="fill:#003366;fill-opacity:1;stroke:none"
       d="m 506.20044,121.57132 -12.8799,-30.782698 c -167.708,-88.1857001 -233.5766,45.545398 -382.3375,82.410098 182.6681,-30.9177 211.8906,-97.104298 395.2174,-51.6274 z"
       id="path3836-8-1-4-1-1-1-4"
       inkscape:connector-curvature="0"
       sodipodi:nodetypes="cccc" />
    <path
       style="fill:#336699;fill-opacity:1;stroke:none"
       d="m 517.87864,155.30522 c -4.3101,-11.3903 -8.6202,-22.7805 -12.9303,-34.1708 -36.9161,-20.0131 -75.5521,-40.527898 -118.594,-41.301098 -30.2769,-3.0114 -42.0058,-3.0914 -76.6396,3.0571 -34.6338,6.1485 -52.2686,13.5607 -69.5612,21.550298 46.3987,-11.136498 101.3482,-14.314998 150.2931,-3.0026 45.8197,9.572 81.6901,43.8078 127.432,53.8671 z"
       id="path3836-8-2-3-18-2-4-7-5"
       inkscape:connector-curvature="0"
       sodipodi:nodetypes="ccczccc" />
    <path
       style="fill:#003366;fill-opacity:1;stroke:none"
       d="m 537.04884,184.48852 c -9.6412,-18.2406 -18.5753,-30.1172 -28.2165,-48.3579 -36.8093,-5.9645 -72.2798,-2.2095 -102.5419,16.9342 -71.9146,32.087 -162.1505,-10.7812 -236.6011,13.7503 -22.7663,6.6199 -91.0598,30.3493 -83.5562,30.3473 62.7977,-10.5692 126.7622,-29.7018 191.4713,-17.4336 51.4449,9.0401 104.2163,6.0021 155.4751,-4.9497 34.3491,-5.4267 68.9196,8.4597 103.9693,9.7028 z"
       id="path3836-8-2-3-1-2-5-0-0-3-1-8"
       inkscape:connector-curvature="0"
       sodipodi:nodetypes="ccccccccc" />
    <path
       style="fill:#336699;fill-opacity:1;stroke:none"
       d="m 536.63704,149.63342 c -3.7149,11.2804 2.5703,21.0606 -1.1446,32.341 -37.7022,10.603 -76.5745,14.2618 -116.7382,14.0449 -28.4607,2.6368 -58.2426,-7.0113 -76.7715,-23.6591 -18.9163,-16.1988 -43.1857,-19.5154 -67.8208,-29.0568 38.4797,7.8427 70.1152,17.9705 104.7627,32.3352 26.0177,10.0697 50.9936,-4.1439 76.7521,-10.3502 27.5105,-8.429 53.2837,-7.5726 80.9603,-15.655 z"
       id="path3836-8-2-3-9-3-0-3-7-8-9"
       inkscape:connector-curvature="0"
       sodipodi:nodetypes="cccccccc" />
    <path
       style="fill:#003366;fill-opacity:1;stroke:none"
       d="m 529.78204,171.47532 c 2.4619,14.3895 20.4005,27.3073 20.6518,42.2697 -2.4835,10.8931 21.6159,21.6392 -13.032,27.6604 -54.656,17.1956 -116.0615,10.6572 -172.5069,4.8565 -56.4454,-5.8006 -87.8502,5.7645 -134.3837,-26.751 -8.0586,-11.4398 -30.8559,-20.1934 -34.0939,-34.0162 6.9491,5.2797 30.067,15.2457 39.3615,22.0787 65.6247,33.1793 139.5334,21.2304 212.4377,11.3711 32.4693,-5.8085 57.4265,-27.2909 81.5655,-47.4692 z"
       id="path3836-8-2-9-3-57-1-5-5-8"
       inkscape:connector-curvature="0"
       sodipodi:nodetypes="ccczccccc" />
    <path
       style="fill:#336699;fill-opacity:1;stroke:none"
       d="m 566.07944,246.87832 4.3406,-12.9652 c -184.8176,-41.7748 -280.7693,-66.8308 -411.3375,16.4073 176.0822,-97.9423 225.2937,12.9537 406.9969,-3.4421 z"
       id="path3836-8-1-6-0-5-5-9-4-1"
       inkscape:connector-curvature="0"
       sodipodi:nodetypes="cccc" />
    <path
       style="fill:#6699cc;fill-opacity:1;stroke:none"
       d="m 546.57754,229.35612 c -1.6316,-14.3665 -7.6825,-28.1016 -9.314,-42.4681 -30.2282,-16.9875 -65.5505,-7.0852 -96.6927,1.4276 -29.741,9.0643 -61.4047,8.5287 -91.4782,1.3797 -34.032,-7.9929 -70.81,-14.0522 -104.2422,-0.1036 -8.9542,3.3093 -15.2223,6.2368 -1.9774,2.9814 35.9939,-7.2494 71.3397,5.3037 104.7405,17.3079 46.7346,17.1348 95.1457,-7.765 142.7958,0.4069 18.4205,2.7489 40.3996,9.2652 56.1682,19.0682 z"
       id="path3836-8-2-3-1-8-2-5-6-2"
       inkscape:connector-curvature="0"
       sodipodi:nodetypes="ccccccccc" />
    <path
       style="fill:#003366;fill-opacity:1;stroke:none"
       d="m 564.34894,254.25262 6.3285,37.2729 c -208.2799,24.3843 -309.1418,-3.5919 -441.6366,-47.3641 142.3393,29.3315 259.12,35.9442 435.3081,10.0912 z"
       id="path3836-8-8-6-9-5-1-0"
       inkscape:connector-curvature="0"
       sodipodi:nodetypes="cccc" />
    <path
       style="fill:#6699cc;fill-opacity:1;stroke:none"
       d="m 513.02234,117.55722 c -7.2856,13.784 10.7118,17.102 3.4261,30.8861 -27.816,4.5072 -79.3689,7.3265 -102.2373,-7.1399 -54.3443,-24.2475 -122.5336,8.1471 -178.7942,-10.3908 -17.204,-5.0025 -68.8119,-22.9343 -63.1416,-22.9328 47.4548,7.9869 95.7914,22.445 144.6906,13.1742 38.8758,-6.8314 78.754,-4.5357 117.4891,3.7404 25.9569,4.1008 52.081,-6.3928 78.5673,-7.3322 z"
       id="path3836-8-2-3-1-2-5-4-1-2-3-5-2"
       inkscape:connector-curvature="0"
       sodipodi:nodetypes="ccccccccc" />
    <path
       style="font-size:40px;font-style:normal;font-weight:bold;line-height:125%;letter-spacing:0px;word-spacing:0px;fill:#fffffa;fill-opacity:1;stroke:none;font-family:Sans;-inkscape-font-specification:Raleway Bold"
       d="m 576.92314,305.46322 c 25.738,6.7388 11.1844,-26.8198 14.9436,-42.0629 0.01,-56.9581 0.017,-113.9163 0.025,-170.874498 -32.8854,0 -67.0209,-5 -99.9063,-5 m 84.9377,217.937398 c -7.9437,0 -56.1979,-0.016 -34.799,0.031 11.5887,-0.021 23.2621,0.042 34.799,-0.031 z m -43.8125,0 c -6.5,-17.6875 -13,-35.3749 -19.5,-53.0624 -24.8958,0 -49.7917,0 -74.6875,0 -6.4987,17.6888 -12.9974,35.3775 -19.4961,53.0663 m 56.9961,-168.2851 c -10.1979,28.6979 -20.3959,57.3959 -30.5938,86.0938 20.0938,0 40.1875,0 60.2813,0 -9.8958,-28.6979 -19.7917,-57.3959 -29.6875,-86.0938 z"
       id="text4142-7-3-48-4-1-8-3"
       inkscape:connector-curvature="0"
       sodipodi:nodetypes="ccccccccccccccc" />
    <text
       xml:space="preserve"
       style="font-size:274.97793579px;font-style:normal;font-weight:bold;line-height:125%;letter-spacing:0px;word-spacing:0px;fill:#336699;fill-opacity:1;stroke:none;font-family:Sans;-inkscape-font-specification:Raleway Bold"
       x="569.32373"
       y="-47.310734"
       id="text4142-7-39-2-4-3"
       sodipodi:linespacing="125%"><tspan
         sodipodi:role="line"
         id="tspan4144-0-9-4-1-0"
         x="569.32373"
         y="-47.310734"
         style="font-size:274.97793579px;font-weight:bold;fill:#336699;fill-opacity:1;font-family:Raleway;-inkscape-font-specification:Raleway Bold" /><tspan
         sodipodi:role="line"
         x="569.32373"
         y="296.41168"
         style="font-size:274.97793579px;font-weight:bold;fill:#336699;fill-opacity:1;font-family:Raleway;-inkscape-font-specification:Raleway Bold"
         id="tspan3133-93-1-7-6-3">ura</tspan></text>
  </g>
</svg>
